<svg width="25" height="26" viewBox="0 0 25 26" fill="none" xmlns="http://www.w3.org/2000/svg">
<path d="M12.7181 24.9811C6.17148 24.9057 0.92541 19.5403 1.0008 13C0.92541 6.45335 6.17148 1.08791 12.7181 1.0188C19.2647 1.09419 24.5045 6.45964 24.4354 13C24.5107 19.5465 19.2647 24.9057 12.7181 24.9811V24.9811Z" stroke="white" stroke-miterlimit="10"/>
<path d="M11.1222 19.3267H13.673V12.9434H15.451L15.6395 10.8073H13.673V9.58846C13.673 9.08584 13.7735 8.88479 14.2636 8.88479H15.6458V6.66699H13.8803C11.983 6.66699 11.1285 7.50259 11.1285 9.09841V10.801H9.80286V12.9623H11.1285V19.3141L11.1222 19.3267Z" fill="white" stroke="white" stroke-width="0.628272"/>
</svg>
