<svg width="26" height="26" viewBox="0 0 26 26" fill="none" xmlns="http://www.w3.org/2000/svg">
<path d="M13.1168 25C6.48855 25 1.11682 19.6283 1.11682 13C1.11682 6.37173 6.48855 1 13.1168 1C19.7451 1 25.1168 6.37173 25.1168 13C25.1168 19.6283 19.7451 25 13.1168 25Z" stroke="white" stroke-miterlimit="10"/>
<path d="M13.1168 8.29415C14.6498 8.29415 14.832 8.29415 15.4351 8.32557C15.7995 8.32557 16.1639 8.39468 16.5032 8.52033C17.0058 8.7151 17.4016 9.11091 17.5901 9.60724C17.7158 9.94651 17.7849 10.3109 17.7911 10.6753C17.8163 11.2784 17.8226 11.4606 17.8226 12.9936C17.8226 14.5266 17.8226 14.7088 17.7911 15.312C17.7911 15.6764 17.722 16.0407 17.5901 16.38C17.3953 16.8826 16.9995 17.2784 16.5032 17.4669C16.1639 17.5926 15.7995 17.6617 15.4351 17.668C14.832 17.6931 14.6498 17.6994 13.1168 17.6994C11.5838 17.6994 11.4016 17.6931 10.7985 17.668C10.4341 17.668 10.0697 17.5989 9.73041 17.4669C9.22779 17.2722 8.83198 16.8764 8.6435 16.38C8.51785 16.0407 8.44874 15.6764 8.44246 15.312C8.41733 14.7088 8.41104 14.5266 8.41104 12.9936C8.41104 11.4606 8.41105 11.2784 8.44246 10.6753C8.44246 10.3109 8.51157 9.94651 8.6435 9.60724C8.83827 9.10462 9.23408 8.70881 9.73041 8.52033C10.0697 8.39468 10.4341 8.32557 10.7985 8.32557C11.4016 8.30044 11.5838 8.29415 13.1168 8.29415ZM13.1168 7.2575C11.5587 7.2575 11.3639 7.26379 10.7482 7.2952C10.2707 7.30777 9.79953 7.39572 9.35345 7.56536C8.58068 7.86064 7.97126 8.47007 7.67597 9.24284C7.50633 9.68892 7.41837 10.1601 7.40581 10.6376C7.38067 11.2533 7.37439 11.4418 7.37439 13.0062C7.37439 14.5706 7.38067 14.7591 7.40581 15.3748C7.41209 15.8523 7.50633 16.3235 7.67597 16.7695C7.97126 17.5423 8.58068 18.1517 9.35345 18.447C9.79953 18.6167 10.2707 18.7046 10.7482 18.7109C11.3639 18.736 11.5587 18.7486 13.1168 18.7486C14.6749 18.7486 14.8697 18.7423 15.4854 18.7109C15.9629 18.7046 16.4341 18.6104 16.8802 18.4408C17.6529 18.1455 18.2623 17.536 18.5576 16.7633C18.7273 16.3172 18.8152 15.846 18.8215 15.3685C18.8466 14.7591 18.8529 14.5643 18.8529 12.9999C18.8529 11.4355 18.8466 11.247 18.8215 10.6313C18.8089 10.1538 18.721 9.68263 18.5576 9.23656C18.2623 8.46379 17.6529 7.85436 16.8802 7.55907C16.4341 7.38944 15.9629 7.30148 15.4854 7.28892C14.8697 7.26379 14.6749 7.25122 13.1168 7.25122" fill="white"/>
<path d="M13.1169 10.0533C11.4897 10.0533 10.1703 11.3727 10.1703 12.9999C10.1703 14.6272 11.4897 15.9465 13.1169 15.9465C14.7441 15.9465 16.0635 14.6272 16.0635 12.9999C16.0635 11.3727 14.7441 10.0533 13.1169 10.0533ZM13.1169 14.9162C12.0614 14.9162 11.2007 14.0617 11.2007 12.9999C11.2007 11.9444 12.0551 11.0837 13.1169 11.0837C14.1724 11.0837 15.0331 11.9382 15.0331 12.9999C15.0331 14.0617 14.1787 14.9162 13.1169 14.9162Z" fill="white"/>
<path d="M16.9493 9.97162C16.9493 10.3549 16.6415 10.6627 16.2582 10.6627C15.875 10.6627 15.5671 10.3549 15.5671 9.97162C15.5671 9.58837 15.875 9.28052 16.2582 9.28052C16.6415 9.28052 16.9493 9.58837 16.9493 9.97162Z" fill="white" stroke="white" stroke-width="0.628272"/>
</svg>
