<svg width="25" height="26" viewBox="0 0 25 26" fill="none" xmlns="http://www.w3.org/2000/svg">
<path d="M12.5567 24.5288C6.18601 24.5162 1.03418 19.3392 1.05303 12.9686C1.0656 6.59788 6.24255 1.44605 12.6132 1.4649C18.9714 1.47746 24.1169 6.64186 24.1169 13C24.1106 19.3769 18.9337 24.5413 12.5567 24.5351V24.5288Z" stroke="white" stroke-miterlimit="10"/>
<path d="M13.1158 13.9425C13.1158 12.9561 13.5682 12.3718 14.4352 12.3718C15.2331 12.3718 15.6164 12.9372 15.6164 13.9425V17.6179H17.7713V13.1885C17.7713 11.3163 16.7096 10.4053 15.2268 10.4053C14.3724 10.3927 13.5682 10.8325 13.1158 11.5613V10.6189H11.0363V17.6179H13.1158V13.9425Z" fill="white" stroke="white" stroke-width="0.628272"/>
<path d="M9.65399 10.6189H7.48645V17.6178H9.65399V10.6189Z" fill="white" stroke="white" stroke-width="0.628272"/>
<path d="M8.56085 9.70163C9.27708 9.70163 9.85509 9.13619 9.86137 8.41996C9.86137 7.70373 9.29592 7.12572 8.57969 7.11944C7.86346 7.11315 7.28546 7.68488 7.27917 8.40111C7.27917 8.40111 7.27917 8.40739 7.27917 8.41368C7.27917 9.12362 7.8509 9.70163 8.56085 9.70792" fill="white"/>
<path d="M8.56085 9.70163C9.27708 9.70163 9.85509 9.13619 9.86137 8.41996C9.86137 7.70373 9.29592 7.12572 8.57969 7.11944C7.86346 7.11315 7.28546 7.68488 7.27917 8.40111C7.27917 8.40111 7.27917 8.40739 7.27917 8.41368C7.27917 9.12362 7.8509 9.70163 8.56085 9.70792" stroke="white" stroke-width="0.628272"/>
</svg>
