<svg width="26" height="26" viewBox="0 0 26 26" fill="none" xmlns="http://www.w3.org/2000/svg">
<path d="M13.2477 24.8084C6.72621 24.8084 1.44245 19.5246 1.43616 13.0032C1.42988 6.4817 6.71993 1.19165 13.2414 1.19165C19.7629 1.19165 25.0466 6.47542 25.0529 12.9969C25.0529 19.5184 19.7691 24.8021 13.2477 24.8084Z" stroke="white" stroke-miterlimit="10"/>
<path d="M7.72522 16.7666C10.7535 18.7079 14.7744 17.8283 16.7158 14.8001C17.4446 13.6629 17.8027 12.331 17.7399 10.9865C18.186 10.666 18.5755 10.2639 18.8833 9.79902C18.4687 9.98122 18.0226 10.1069 17.5702 10.1571C18.0477 9.86813 18.4059 9.42206 18.5755 8.88802C18.1294 9.1519 17.6331 9.34038 17.1242 9.44719C16.2572 8.52363 14.8059 8.47965 13.8886 9.34666C13.2917 9.90582 13.0404 10.7414 13.2226 11.5331C11.3818 11.4388 9.66658 10.5718 8.50428 9.13933C7.89486 10.1823 8.20899 11.5205 9.21423 12.1927C8.84983 12.1802 8.498 12.0859 8.17758 11.9037C8.16501 13.0032 8.93778 13.9582 10.0121 14.1781C9.67286 14.2723 9.32103 14.2849 8.98176 14.2158C9.28333 15.1456 10.1378 15.7865 11.1179 15.8053C10.1566 16.5592 8.93779 16.8985 7.7315 16.754" fill="white"/>
<path d="M7.72522 16.7666C10.7535 18.7079 14.7744 17.8283 16.7158 14.8001C17.4446 13.6629 17.8027 12.331 17.7399 10.9865C18.186 10.666 18.5755 10.2639 18.8833 9.79902C18.4687 9.98122 18.0226 10.1069 17.5702 10.1571C18.0477 9.86813 18.4059 9.42206 18.5755 8.88802C18.1294 9.1519 17.6331 9.34038 17.1242 9.44719C16.2572 8.52363 14.8059 8.47965 13.8886 9.34666C13.2917 9.90582 13.0404 10.7414 13.2226 11.5331C11.3818 11.4388 9.66658 10.5718 8.50428 9.13933C7.89486 10.1823 8.20899 11.5205 9.21423 12.1927C8.84983 12.1802 8.498 12.0859 8.17758 11.9037C8.16501 13.0032 8.93778 13.9582 10.0121 14.1781C9.67286 14.2723 9.32103 14.2849 8.98176 14.2158C9.28333 15.1456 10.1378 15.7865 11.1179 15.8053C10.1566 16.5592 8.93779 16.8985 7.7315 16.754" stroke="white" stroke-width="0.628272"/>
</svg>
