<svg width="25" height="25" viewBox="0 0 25 25" fill="none" xmlns="http://www.w3.org/2000/svg">
<path d="M12.6595 24.6427C6.11289 24.5673 0.866816 19.2019 0.942209 12.6616C0.866816 6.11498 6.11289 0.74953 12.6595 0.68042C19.2061 0.755813 24.4459 6.12126 24.3768 12.6616C24.4522 19.2082 19.2061 24.5673 12.6595 24.6427V24.6427Z" stroke="#121212" stroke-width="0.270157" stroke-miterlimit="10"/>
<path d="M11.0635 18.9883H13.6143V12.6051H15.3923L15.5808 10.4689H13.6143V9.25008C13.6143 8.74746 13.7148 8.54641 14.2049 8.54641H15.5871V6.32861H13.8216C11.9242 6.32861 11.0698 7.16422 11.0698 8.76003V10.4626H9.74414V12.6239H11.0698V18.9757L11.0635 18.9883Z" fill="#121212" stroke="#121212" stroke-width="0.628272"/>
</svg>
