<svg width="26" height="25" viewBox="0 0 26 25" fill="none" xmlns="http://www.w3.org/2000/svg">
<path d="M13.0581 24.6616C6.42984 24.6616 1.05811 19.2899 1.05811 12.6616C1.05811 6.03335 6.42984 0.661621 13.0581 0.661621C19.6864 0.661621 25.0581 6.03335 25.0581 12.6616C25.0581 19.2899 19.6864 24.6616 13.0581 24.6616Z" stroke="#121212" stroke-width="0.270157" stroke-miterlimit="10"/>
<path d="M13.0583 7.95577C14.5913 7.95577 14.7735 7.95577 15.3767 7.98719C15.741 7.98719 16.1055 8.0563 16.4447 8.18195C16.9473 8.37672 17.3431 8.77253 17.5316 9.26886C17.6573 9.60813 17.7264 9.97253 17.7327 10.3369C17.7578 10.9401 17.7641 11.1223 17.7641 12.6553C17.7641 14.1882 17.7641 14.3704 17.7327 14.9736C17.7327 15.338 17.6636 15.7024 17.5316 16.0416C17.3369 16.5443 16.9411 16.9401 16.4447 17.1285C16.1055 17.2542 15.741 17.3233 15.3767 17.3296C14.7735 17.3547 14.5913 17.361 13.0583 17.361C11.5254 17.361 11.3432 17.3547 10.74 17.3296C10.3756 17.3296 10.0112 17.2605 9.67194 17.1285C9.16932 16.9338 8.77351 16.538 8.58503 16.0416C8.45938 15.7024 8.39027 15.338 8.38399 14.9736C8.35886 14.3704 8.35257 14.1882 8.35257 12.6553C8.35257 11.1223 8.35257 10.9401 8.38399 10.3369C8.38399 9.97253 8.45309 9.60813 8.58503 9.26886C8.77979 8.76624 9.1756 8.37043 9.67194 8.18195C10.0112 8.0563 10.3756 7.98719 10.74 7.98719C11.3432 7.96206 11.5254 7.95577 13.0583 7.95577ZM13.0583 6.91912C11.5002 6.91912 11.3055 6.92541 10.6897 6.95682C10.2123 6.96939 9.74105 7.05734 9.29498 7.22698C8.52221 7.52227 7.91278 8.13169 7.6175 8.90446C7.44786 9.35054 7.3599 9.82174 7.34733 10.2992C7.3222 10.9149 7.31592 11.1034 7.31592 12.6678C7.31592 14.2322 7.3222 14.4207 7.34733 15.0364C7.35362 15.5139 7.44786 15.9851 7.6175 16.4312C7.91278 17.2039 8.52221 17.8134 9.29498 18.1087C9.74105 18.2783 10.2123 18.3662 10.6897 18.3725C11.3055 18.3977 11.5002 18.4102 13.0583 18.4102C14.6165 18.4102 14.8112 18.4039 15.4269 18.3725C15.9044 18.3662 16.3756 18.272 16.8217 18.1024C17.5945 17.8071 18.2039 17.1977 18.4992 16.4249C18.6688 15.9788 18.7568 15.5076 18.763 15.0301C18.7882 14.4207 18.7945 14.2259 18.7945 12.6615C18.7945 11.0971 18.7882 10.9087 18.763 10.2929C18.7505 9.81546 18.6625 9.34426 18.4992 8.89818C18.2039 8.12541 17.5945 7.51598 16.8217 7.2207C16.3756 7.05106 15.9044 6.9631 15.4269 6.95054C14.8112 6.92541 14.6165 6.91284 13.0583 6.91284" fill="#121212"/>
<path d="M13.0579 9.71484C11.4307 9.71484 10.1113 11.0342 10.1113 12.6614C10.1113 14.2887 11.4307 15.608 13.0579 15.608C14.6852 15.608 16.0045 14.2887 16.0045 12.6614C16.0045 11.0342 14.6852 9.71484 13.0579 9.71484ZM13.0579 14.5777C12.0024 14.5777 11.1417 13.7232 11.1417 12.6614C11.1417 11.6059 11.9961 10.7452 13.0579 10.7452C14.1134 10.7452 14.9741 11.5997 14.9741 12.6614C14.9741 13.7232 14.1197 14.5777 13.0579 14.5777Z" fill="#121212"/>
<path d="M16.8905 9.63324C16.8905 10.0165 16.5827 10.3243 16.1994 10.3243C15.8162 10.3243 15.5083 10.0165 15.5083 9.63324C15.5083 9.24999 15.8162 8.94214 16.1994 8.94214C16.5827 8.94214 16.8905 9.24999 16.8905 9.63324Z" fill="#121212" stroke="#121212" stroke-width="0.628272"/>
</svg>
