<svg width="25" height="24" viewBox="0 0 25 24" fill="none" xmlns="http://www.w3.org/2000/svg">
<path d="M12.4979 23.1904C6.12717 23.1778 0.975344 18.0009 0.994192 11.6302C1.00676 5.2595 6.18372 0.107668 12.5544 0.126516C18.9125 0.139082 24.0581 5.30348 24.0581 11.6616C24.0518 18.0386 18.8748 23.203 12.4979 23.1967V23.1904Z" stroke="#121212" stroke-width="0.270157" stroke-miterlimit="10"/>
<path d="M13.0571 12.6041C13.0571 11.6177 13.5095 11.0334 14.3765 11.0334C15.1744 11.0334 15.5576 11.5988 15.5576 12.6041V16.2795H17.7126V11.8502C17.7126 9.97791 16.6508 9.06691 15.1681 9.06691C14.3137 9.05435 13.5095 9.49414 13.0571 10.2229V9.28053H10.9775V16.2795H13.0571V12.6041Z" fill="#121212" stroke="#121212" stroke-width="0.628272"/>
<path d="M9.59527 9.28052H7.42773V16.2795H9.59527V9.28052Z" fill="#121212" stroke="#121212" stroke-width="0.628272"/>
<path d="M8.50189 8.36326C9.21812 8.36326 9.79613 7.79781 9.80241 7.08158C9.80241 6.36535 9.23696 5.78734 8.52073 5.78106C7.8045 5.77477 7.2265 6.3465 7.22021 7.06273C7.22021 7.06273 7.22021 7.06902 7.22021 7.0753C7.22021 7.78525 7.79194 8.36326 8.50189 8.36954" fill="#121212"/>
<path d="M8.50189 8.36326C9.21812 8.36326 9.79613 7.79781 9.80241 7.08158C9.80241 6.36535 9.23696 5.78734 8.52073 5.78106C7.8045 5.77477 7.2265 6.3465 7.22021 7.06273C7.22021 7.06273 7.22021 7.06902 7.22021 7.0753C7.22021 7.78525 7.79194 8.36326 8.50189 8.36954" stroke="#121212" stroke-width="0.628272"/>
</svg>
