<svg width="25" height="25" viewBox="0 0 25 25" fill="none" xmlns="http://www.w3.org/2000/svg">
<path d="M12.189 24.47C5.6675 24.47 0.38373 19.1863 0.377447 12.6648C0.371164 6.14332 5.66122 0.853271 12.1827 0.853271C18.7041 0.853271 23.9879 6.13704 23.9942 12.6585C23.9942 19.18 18.7104 24.4637 12.189 24.47Z" stroke="#121212" stroke-width="0.270157" stroke-miterlimit="10"/>
<path d="M6.6665 16.4282C9.69478 18.3695 13.7157 17.49 15.6571 14.4617C16.3859 13.3245 16.744 11.9926 16.6812 10.6481C17.1272 10.3277 17.5168 9.92556 17.8246 9.46064C17.41 9.64284 16.9639 9.76849 16.5115 9.81875C16.989 9.52975 17.3471 9.08368 17.5168 8.54964C17.0707 8.81352 16.5744 9.002 16.0655 9.10881C15.1984 8.18525 13.7471 8.14127 12.8299 9.00828C12.233 9.56745 11.9817 10.403 12.1639 11.1947C10.323 11.1004 8.60787 10.2334 7.44556 8.80095C6.83614 9.84389 7.15028 11.1821 8.15551 11.8544C7.79111 11.8418 7.43928 11.7476 7.11886 11.5654C7.1063 12.6648 7.87907 13.6198 8.95341 13.8397C8.61415 13.9339 8.26232 13.9465 7.92305 13.8774C8.22462 14.8072 9.07907 15.4481 10.0592 15.4669C9.09792 16.2208 7.87907 16.5601 6.67279 16.4156" fill="#121212"/>
<path d="M6.6665 16.4282C9.69478 18.3695 13.7157 17.49 15.6571 14.4617C16.3859 13.3245 16.744 11.9926 16.6812 10.6481C17.1272 10.3277 17.5168 9.92556 17.8246 9.46064C17.41 9.64284 16.9639 9.76849 16.5115 9.81875C16.989 9.52975 17.3471 9.08368 17.5168 8.54964C17.0707 8.81352 16.5744 9.002 16.0655 9.10881C15.1984 8.18525 13.7471 8.14127 12.8299 9.00828C12.233 9.56745 11.9817 10.403 12.1639 11.1947C10.323 11.1004 8.60787 10.2334 7.44556 8.80095C6.83614 9.84389 7.15028 11.1821 8.15551 11.8544C7.79111 11.8418 7.43928 11.7476 7.11886 11.5654C7.1063 12.6648 7.87907 13.6198 8.95341 13.8397C8.61415 13.9339 8.26232 13.9465 7.92305 13.8774C8.22462 14.8072 9.07907 15.4481 10.0592 15.4669C9.09792 16.2208 7.87907 16.5601 6.67279 16.4156" stroke="#121212" stroke-width="0.628272"/>
</svg>
