<?xml version="1.0" standalone="no"?>
<!DOCTYPE svg PUBLIC "-//W3C//DTD SVG 20010904//EN"
 "http://www.w3.org/TR/2001/REC-SVG-20010904/DTD/svg10.dtd">
<svg version="1.0" xmlns="http://www.w3.org/2000/svg"
 width="256.000000pt" height="256.000000pt" viewBox="0 0 256.000000 256.000000"
 preserveAspectRatio="xMidYMid meet">
<metadata>
Created by potrace 1.14, written by Peter Selinger 2001-2017
</metadata>
<g transform="translate(0.000000,256.000000) scale(0.100000,-0.100000)"
fill="#000000" stroke="none">
<path d="M322 1562 c-6 -2 -12 -15 -12 -28 0 -21 5 -24 43 -25 23 -1 62 -2 87
-3 l45 -1 0 -45 0 -45 -111 -1 c-61 0 -115 -4 -121 -7 -12 -8 -12 -32 0 -44 4
-4 233 -7 509 -7 445 -1 504 1 522 15 16 13 20 29 21 93 1 86 -10 112 -43 102
-19 -6 -21 -16 -24 -79 l-3 -72 -337 -1 c-186 -1 -339 1 -339 5 -1 3 -3 33 -4
65 -2 45 -7 62 -21 70 -18 10 -185 17 -212 8z"/>
<path d="M1425 1562 c-9 -9 -5 -41 6 -48 6 -3 46 -6 90 -6 84 1 85 0 88 -60 1
-34 -10 -37 -136 -36 -50 0 -96 -3 -102 -6 -17 -11 -13 -34 7 -43 9 -5 188 -8
397 -8 425 0 397 -5 376 72 -12 45 -53 93 -97 116 -44 23 -170 31 -178 12 -10
-27 5 -45 38 -46 102 -4 147 -22 171 -69 l16 -30 -33 -1 c-18 0 -55 0 -83 1
-27 0 -108 2 -180 3 l-130 2 -1 58 c-1 85 -11 92 -139 93 -58 1 -107 -1 -110
-4z"/>
<path d="M1161 1293 c-19 -16 -21 -22 -12 -46 16 -42 61 -29 61 19 0 35 -23
48 -49 27z"/>
<path d="M1072 1287 c-14 -17 -5 -54 15 -61 23 -9 44 14 41 43 -3 30 -38 41
-56 18z"/>
<path d="M502 1197 c-10 -14 -11 -362 0 -372 3 -4 16 -4 27 0 19 6 21 14 21
85 l0 79 46 -5 c61 -5 76 -23 83 -97 5 -55 9 -62 29 -65 21 -3 22 0 22 64 0
65 -1 68 -40 106 -39 36 -64 44 -122 39 -15 -2 -18 10 -20 85 -3 73 -6 88 -20
90 -9 1 -21 -3 -26 -9z"/>
<path d="M1264 1199 c-3 -5 -5 -81 -5 -169 0 -88 -3 -160 -7 -161 -35 -5 -135
-3 -144 2 -20 13 12 59 61 91 25 15 51 28 58 28 18 0 16 27 -3 38 -20 11 -99
-25 -132 -61 -39 -41 -61 -132 -33 -138 29 -7 220 -4 234 3 16 8 17 25 15 190
-3 163 -5 181 -20 184 -10 1 -21 -2 -24 -7z"/>
<path d="M2096 1201 c-4 -5 -6 -77 -5 -160 0 -83 -2 -155 -5 -159 -2 -4 -31
-7 -63 -7 -32 1 -61 -4 -65 -9 -4 -6 -10 -4 -13 7 -10 23 25 79 61 97 16 8 31
18 32 23 2 4 8 5 13 1 13 -8 24 25 12 37 -18 18 -86 -11 -122 -52 -41 -47 -65
-112 -52 -138 9 -15 22 -17 108 -15 139 4 143 6 144 57 1 46 1 307 0 320 -1
10 -39 9 -45 -2z"/>
<path d="M975 1048 c-3 -7 -6 -51 -7 -97 l-3 -85 -73 -1 c-41 0 -76 3 -78 7
-6 10 13 47 39 76 22 24 49 30 46 10 -1 -7 -1 -18 0 -24 1 -16 41 -25 42 -11
3 44 0 99 -5 104 -11 11 -36 12 -36 2 0 -5 -3 -8 -7 -7 -12 3 -56 -22 -82 -49
-31 -31 -63 -122 -48 -138 12 -12 241 -15 253 -2 9 9 15 164 8 200 -6 28 -40
39 -49 15z"/>
<path d="M1356 1028 c-11 -6 -14 -29 -14 -93 1 -47 5 -88 10 -91 5 -3 6 -9 4
-13 -4 -5 204 -8 237 -2 4 0 3 10 -3 21 -10 18 -20 20 -96 18 -98 -2 -102 1
-102 75 l-1 49 40 -5 c48 -6 93 -33 82 -49 -5 -9 -8 -9 -10 -1 -3 8 -12 9 -26
4 -12 -4 -28 -6 -34 -4 -19 7 -29 -27 -12 -38 12 -7 58 -7 147 0 9 1 9 9 -3
36 -16 40 -30 56 -61 73 -39 21 -135 33 -158 20z"/>
<path d="M1626 1028 c-13 -7 -16 -26 -16 -91 0 -45 4 -89 10 -97 7 -11 34 -14
122 -15 106 0 113 1 113 20 0 18 -8 20 -96 25 l-95 5 0 58 c0 55 1 57 27 57
25 0 53 -11 89 -35 11 -8 3 -11 -35 -15 -42 -4 -50 -8 -50 -25 0 -17 7 -20 55
-22 74 -2 100 4 100 24 0 30 -42 79 -81 96 -46 20 -120 28 -143 15z"/>
</g>
</svg>
