<svg width="25" height="24" viewBox="0 0 25 24" fill="none" xmlns="http://www.w3.org/2000/svg">
<path d="M19.0959 9L13.5659 3.47C13.4254 3.32931 13.2348 3.25018 13.0359 3.25H8.56592C7.83657 3.25 7.1371 3.53973 6.62137 4.05546C6.10565 4.57118 5.81592 5.27065 5.81592 6V18C5.81592 18.7293 6.10565 19.4288 6.62137 19.9445C7.1371 20.4603 7.83657 20.75 8.56592 20.75H16.5659C17.2953 20.75 17.9947 20.4603 18.5105 19.9445C19.0262 19.4288 19.3159 18.7293 19.3159 18V9.5C19.308 9.3116 19.2295 9.13309 19.0959 9ZM13.8159 5.81L16.7559 8.75H13.8159V5.81ZM16.5659 19.25H8.56592C8.2344 19.25 7.91646 19.1183 7.68203 18.8839C7.44761 18.6495 7.31592 18.3315 7.31592 18V6C7.31592 5.66848 7.44761 5.35054 7.68203 5.11612C7.91646 4.8817 8.2344 4.75 8.56592 4.75H12.3159V9.5C12.3185 9.69811 12.3984 9.88737 12.5385 10.0275C12.6785 10.1676 12.8678 10.2474 13.0659 10.25H17.8159V18C17.8159 18.3315 17.6842 18.6495 17.4498 18.8839C17.2154 19.1183 16.8974 19.25 16.5659 19.25Z" fill="white"/>
<path d="M14.0559 14.85C13.441 14.4641 12.9783 13.8778 12.7459 13.19C12.9612 12.5466 13.0262 11.8624 12.9359 11.19C12.9071 11.0206 12.8245 10.865 12.7003 10.7462C12.5761 10.6274 12.417 10.5517 12.2465 10.5304C12.076 10.5091 11.9031 10.5433 11.7536 10.6278C11.604 10.7124 11.4856 10.8429 11.4159 11C11.3021 11.8084 11.3879 12.6324 11.6659 13.4C11.2861 14.2873 10.8623 15.155 10.3959 16C9.68593 16.4 8.71593 17 8.56593 17.69C8.44593 18.25 9.49593 19.69 11.2859 16.57C12.0819 16.2745 12.8971 16.034 13.7259 15.85C14.3386 16.2003 15.022 16.4087 15.7259 16.46C15.8876 16.4642 16.0468 16.4205 16.1837 16.3345C16.3205 16.2484 16.4289 16.1238 16.4952 15.9763C16.5614 15.8289 16.5826 15.6651 16.5561 15.5056C16.5295 15.3461 16.4564 15.1981 16.3459 15.08C15.9259 14.65 14.6759 14.77 14.0559 14.85ZM9.27593 17.85C9.55617 17.3704 9.92626 16.9494 10.3659 16.61C9.68593 17.69 9.27593 17.88 9.27593 17.86V17.85ZM12.1959 11.04C12.4559 11.04 12.4359 12.19 12.2559 12.5C12.1203 12.0284 12.0998 11.5312 12.1959 11.05V11.04ZM11.3259 15.92C11.6647 15.3018 11.9588 14.6602 12.2059 14C12.4708 14.493 12.8393 14.9228 13.2859 15.26C12.615 15.4281 11.9593 15.6522 11.3259 15.93V15.92ZM16.0259 15.74C16.0259 15.74 15.8459 15.96 14.6959 15.46C15.9459 15.38 16.1559 15.67 16.0259 15.75V15.74Z" fill="white"/>
</svg>
