<svg width="40" height="40" viewBox="0 0 40 40" fill="none" xmlns="http://www.w3.org/2000/svg">
<path d="M27.0705 12.9294C26.5823 12.4413 25.7911 12.4413 25.303 12.9294L19.9998 18.2325L14.6967 12.9294C14.2086 12.4413 13.4173 12.4413 12.9286 12.9294C12.4405 13.4175 12.4405 14.2088 12.9286 14.6969L18.2317 20L12.9286 25.3031C12.4405 25.7906 12.4405 26.5832 12.9286 27.0707C13.4167 27.5588 14.208 27.5588 14.6967 27.0707L19.9998 21.7676L25.303 27.0707C25.7911 27.5588 26.5823 27.5588 27.0705 27.0707C27.5586 26.5832 27.5586 25.7906 27.0705 25.3031L21.7673 20L27.0705 14.6969C27.5592 14.2081 27.5592 13.4169 27.0705 12.9294Z" fill="white"/>
</svg>
