<svg width="40" height="40" viewBox="0 0 40 40" fill="none" xmlns="http://www.w3.org/2000/svg">
<path d="M27.0707 12.9293C26.5826 12.4412 25.7913 12.4412 25.3032 12.9293L20.0001 18.2325L14.697 12.9293C14.2088 12.4412 13.4176 12.4412 12.9288 12.9293C12.4407 13.4175 12.4407 14.2087 12.9288 14.6968L18.232 20L12.9288 25.3031C12.4407 25.7906 12.4407 26.5831 12.9288 27.0706C13.417 27.5587 14.2082 27.5587 14.697 27.0706L20.0001 21.7675L25.3032 27.0706C25.7913 27.5587 26.5826 27.5587 27.0707 27.0706C27.5588 26.5831 27.5588 25.7906 27.0707 25.3031L21.7676 20L27.0707 14.6968C27.5595 14.2081 27.5595 13.4168 27.0707 12.9293Z" fill="#121212"/>
</svg>
