<svg width="19" height="20" viewBox="0 0 19 20" fill="none" xmlns="http://www.w3.org/2000/svg">
<g id="email" clip-path="url(#clip0_178_819)">
<path id="Vector" d="M15.5714 3.5437H3.19456C2.34366 3.5437 1.6552 4.2399 1.6552 5.0908L1.64746 14.3734C1.64746 15.2243 2.34366 15.9205 3.19456 15.9205H15.5714C16.4223 15.9205 17.1185 15.2243 17.1185 14.3734V5.0908C17.1185 4.2399 16.4223 3.5437 15.5714 3.5437ZM15.2619 6.83129L9.79294 10.2504C9.5454 10.4051 9.22051 10.4051 8.97298 10.2504L3.50398 6.83129C3.31059 6.70752 3.19456 6.49866 3.19456 6.27433C3.19456 5.75605 3.75925 5.44663 4.20017 5.71738L9.38296 8.95855L14.5657 5.71738C15.0067 5.44663 15.5714 5.75605 15.5714 6.27433C15.5714 6.49866 15.4553 6.70752 15.2619 6.83129Z" fill="#FF9900"/>
</g>
<defs>
<clipPath id="clip0_178_819">
<rect width="18.5652" height="18.5652" fill="white" transform="translate(0.100586 0.449463)"/>
</clipPath>
</defs>
</svg>
