<svg width="19" height="20" viewBox="0 0 19 20" fill="none" xmlns="http://www.w3.org/2000/svg">
<g id="Location">
<path id="Vector" d="M9.38322 2.4314C7.74252 2.43324 6.16955 3.08582 5.0094 4.24597C3.84925 5.40612 3.19667 6.97909 3.19482 8.61979C3.19482 11.1377 5.02272 13.2286 6.95892 15.4417C7.57157 16.1426 8.20588 16.8674 8.77057 17.6007C8.84283 17.6944 8.93564 17.7704 9.04186 17.8226C9.14807 17.8748 9.26486 17.902 9.38322 17.902C9.50158 17.902 9.61837 17.8748 9.72458 17.8226C9.8308 17.7704 9.92361 17.6944 9.99587 17.6007C10.5606 16.8674 11.1949 16.1426 11.8075 15.4417C13.7437 13.2286 15.5716 11.1377 15.5716 8.61979C15.5698 6.97909 14.9172 5.40612 13.757 4.24597C12.5969 3.08582 11.0239 2.43324 9.38322 2.4314ZM9.38322 10.9404C8.92424 10.9404 8.47557 10.8043 8.09394 10.5493C7.71231 10.2943 7.41487 9.93191 7.23922 9.50787C7.06358 9.08382 7.01762 8.61722 7.10716 8.16706C7.19671 7.7169 7.41773 7.3034 7.74227 6.97885C8.06682 6.6543 8.48032 6.43328 8.93049 6.34373C9.38065 6.25419 9.84725 6.30015 10.2713 6.47579C10.6953 6.65144 11.0578 6.94888 11.3128 7.33051C11.5678 7.71214 11.7039 8.16081 11.7039 8.61979C11.7039 9.23527 11.4594 9.82553 11.0242 10.2607C10.589 10.6959 9.9987 10.9404 9.38322 10.9404Z" fill="#FF9900"/>
</g>
</svg>
