<svg width="100" height="39" viewBox="0 0 100 39" fill="none" xmlns="http://www.w3.org/2000/svg">
<g clip-path="url(#clip0_204_2906)">
<path d="M39.0498 26.1384C38.0159 26.1384 37.6766 26.3278 37.6766 27.4722V35.5221C37.6766 35.9798 37.5503 36.2166 37.0057 36.2166H29.9029C29.2637 36.2166 29.2321 36.0666 29.2321 35.7904C29.2321 33.3596 32.6967 30.3765 33.699 30.3765C33.7621 30.3765 33.7621 30.408 33.7621 30.4712V32.2942C33.7621 33.3044 33.8489 33.6043 35.0091 33.6043C36.1692 33.6043 36.256 33.3044 36.256 32.2942V28.7428C36.256 28.0088 35.9798 27.4643 35.159 27.4643C32.7914 27.4643 26.5883 31.1972 26.5883 36.8558C26.5883 38.1896 27.3775 38.4974 28.3876 38.4974H37.4161C39.7837 38.4974 40.423 37.866 40.423 35.5221V27.4722C40.423 26.3199 40.0915 26.1384 39.0577 26.1384H39.0498Z" fill="#FF9900"/>
<path d="M53.9894 18.4673C52.9556 18.4673 52.6241 18.6172 52.6241 19.7853V35.522C52.6241 35.9797 52.5057 36.2165 51.9533 36.2165H44.9294C44.2901 36.2165 44.2585 36.0665 44.2585 35.7903C44.2585 34.6381 45.8764 31.2997 50.801 29.7845C51.6455 29.5398 51.7402 29.0584 51.4719 28.2692C51.1325 27.3537 50.588 27.3853 49.8935 27.5747C44.0849 29.2715 41.6305 33.1544 41.6305 36.8557C41.6305 38.1895 42.4118 38.4973 43.422 38.4973H52.3637C54.7313 38.4973 55.3705 37.8659 55.3705 35.522V19.7853C55.3705 18.6172 55.0312 18.4673 53.9973 18.4673H53.9894Z" fill="#FF9900"/>
<path d="M97.9323 18.4673C96.8984 18.4673 96.567 18.6172 96.567 19.7853V35.522C96.567 35.9797 96.4407 36.2165 95.8962 36.2165H88.8722C88.233 36.2165 88.2014 36.0665 88.2014 35.7903C88.2014 34.6381 89.8193 31.2997 94.7439 29.7845C95.5884 29.5398 95.6831 29.0584 95.4147 28.2692C95.0754 27.3537 94.5308 27.3853 93.8363 27.5747C88.0278 29.2715 85.5734 33.1544 85.5734 36.8557C85.5734 38.1895 86.3547 38.4973 87.3649 38.4973H96.3065C98.6741 38.4973 99.3134 37.8659 99.3134 35.522V19.7853C99.3134 18.6172 98.9819 18.4673 97.9402 18.4673H97.9323Z" fill="#FF9900"/>
<path d="M55.3626 0.81288C55.3626 0.370926 54.9996 0.00789204 54.5498 0.00789204C54.5498 0.00789204 54.5419 0.00789204 54.534 0.00789204H52.9635C52.9635 0.00789204 52.9477 0.00789204 52.9398 0.00789204C52.4978 0.00789204 52.1348 0.370926 52.1348 0.81288V7.28435C52.1269 7.71052 51.7797 8.05777 51.3535 8.07355H16.889C16.4865 8.05777 16.155 7.74998 16.1155 7.35538V2.82535C16.1155 1.27062 14.8607 0.00789204 13.306 0H4.19067C3.74083 0 3.38568 0.363034 3.38568 0.804988V2.01247C3.38568 2.45442 3.74872 2.81746 4.19067 2.81746H12.1064C12.5326 2.83324 12.8798 3.18049 12.8877 3.60666V7.28435C12.8719 7.71052 12.5326 8.06566 12.1064 8.07355H0.820772V8.08934H0.81288C0.363034 8.09723 0 8.46026 0 8.90222V10.1097C0 10.5517 0.363034 10.9068 0.804988 10.9068C0.804988 10.9068 0.81288 10.9147 0.820772 10.9147C0.820772 10.9147 52.5452 10.9068 52.5531 10.9068C54.1078 10.8989 55.3626 9.62828 55.3626 8.07355V0.81288Z" fill="#0033CC"/>
<path d="M45.0714 13.8347C44.6768 13.8347 44.3296 13.9926 44.0691 14.253C43.9192 14.4029 43.3667 14.9554 43.2168 15.1053C42.9564 15.3579 42.7985 15.713 42.7985 16.1076C42.7985 16.8889 43.4299 17.5203 44.2112 17.5203C44.5979 17.5203 44.9452 17.3625 45.1977 17.1099C45.3477 16.96 45.9238 16.3838 46.0737 16.2339C46.3263 15.9814 46.4762 15.6262 46.4762 15.2474C46.4762 14.4661 45.8448 13.8347 45.0635 13.8347" fill="#0033CC"/>
<path d="M49.1438 13.8347C48.757 13.8347 48.4019 13.9926 48.1415 14.253C47.9915 14.4029 47.4391 14.9554 47.2891 15.1053C47.0287 15.3579 46.8708 15.713 46.8708 16.1076C46.8708 16.8889 47.5022 17.5203 48.2835 17.5203C48.6702 17.5203 49.0175 17.3625 49.27 17.1099C49.42 16.96 49.9961 16.3838 50.146 16.2339C50.3986 15.9814 50.5485 15.6262 50.5485 15.2474C50.5485 14.4661 49.9172 13.8347 49.1359 13.8347" fill="#0033CC"/>
<path d="M100 10.086V9.65196C99.9764 4.32484 95.6515 0 90.3086 0H86.2284C86.2205 0 86.2048 0 86.1969 0C85.747 0 85.3919 0.363034 85.3919 0.804988V2.01247C85.3919 2.45442 85.747 2.81746 86.189 2.81746H90.3007C93.3549 2.81746 95.9514 4.82203 96.8353 7.58425C96.8353 7.60792 96.8432 7.63949 96.8432 7.66317C96.8432 7.88415 96.6617 8.06566 96.4407 8.06566H75.5111C75.0691 8.06566 74.7061 7.70263 74.7061 7.26067V2.82535C74.7061 1.27062 73.4512 0.00789204 71.8965 0H62.4892C62.0472 0 61.6842 0.363034 61.6842 0.804988V2.02036C61.6842 2.46232 62.0472 2.82535 62.4892 2.82535H70.6969C71.1231 2.84113 71.4703 3.18838 71.4782 3.61455V7.30013C71.4624 7.71052 71.1468 8.03409 70.7443 8.07355H59.435C59.435 8.07355 59.4271 8.07355 59.4192 8.07355C58.9693 8.07355 58.6142 8.43659 58.6142 8.87854V10.086C58.6142 10.528 58.9772 10.891 59.4192 10.891C59.4192 10.891 59.4271 10.891 59.435 10.891C59.435 10.891 99.1793 10.8989 99.1872 10.8989C99.6291 10.8989 99.9921 10.5359 99.9921 10.0939" fill="#0033CC"/>
<path d="M68.8422 36.177H60.374C59.8295 36.177 59.7032 35.9324 59.7032 35.4746V29.816C59.7348 29.6661 59.8295 29.5635 59.9873 29.5161H60.8555C62.7653 29.5161 65.0777 30.55 66.2536 31.6707C66.3799 31.8127 67.106 32.4441 66.1037 32.4441H62.5917C61.4316 32.4441 61.2816 32.7203 61.2816 33.5726C61.2816 34.425 61.4316 34.7012 62.5917 34.7012H68.7238C70.9652 34.7012 69.1421 27.48 60.1057 27.48C60.0742 27.48 60.0426 27.48 60.0189 27.48H58.4878V27.4958C57.4856 27.4958 57.162 27.6931 57.162 28.8295V35.5377C57.162 37.8817 57.8012 38.5052 60.1767 38.5052H68.8264C69.9865 38.5052 70.1365 38.221 70.1365 37.3687C70.1365 36.5164 69.9865 36.177 68.8264 36.177H68.8422Z" fill="#FF9900"/>
<path d="M82.9059 36.177H74.4377C73.8932 36.177 73.7669 35.9324 73.7669 35.4746V29.816C73.7985 29.6661 73.8932 29.5635 74.051 29.5161H74.9191C76.829 29.5161 79.1414 30.55 80.3173 31.6707C80.4435 31.8127 81.1696 32.4441 80.1673 32.4441H76.6554C75.4952 32.4441 75.3453 32.7203 75.3453 33.5726C75.3453 34.425 75.4952 34.7012 76.6554 34.7012H82.7875C85.0288 34.7012 83.2058 27.48 74.1694 27.48C74.1378 27.48 74.1062 27.48 74.0826 27.48H72.5515V27.4958C71.5492 27.4958 71.2256 27.6931 71.2256 28.8295V35.5377C71.2256 37.8817 71.8649 38.5052 74.2404 38.5052H82.8901C84.0502 38.5052 84.2002 38.221 84.2002 37.3687C84.2002 36.5164 84.0502 36.177 82.8901 36.177H82.9059Z" fill="#FF9900"/>
<path d="M17.9702 27.5668H15.3895V19.7853C15.3895 18.6172 15.058 18.4673 14.0242 18.4673C12.9903 18.4673 12.6431 18.6172 12.6431 20.0773V37.5108C12.6431 38.3789 13.0456 38.5604 14.0242 38.5604C15.0028 38.5604 15.3895 38.3789 15.3895 37.2267V29.9423C15.4763 29.8792 15.642 29.8397 15.9498 29.8397H18.0018C20.4799 29.8555 22.5476 31.6707 22.5476 34.2987L22.5239 37.2267C22.5239 38.3868 22.9343 38.5604 23.9129 38.5604C24.8915 38.5604 25.1441 38.3789 25.1441 37.2267V34.4092C25.1441 30.5895 21.7899 27.5668 17.9702 27.5668Z" fill="#FF9900"/>
</g>
<defs>
<clipPath id="clip0_204_2906">
<rect width="100" height="38.5605" fill="white"/>
</clipPath>
</defs>
</svg>
