<svg width="25" height="25" viewBox="0 0 25 25" fill="none" xmlns="http://www.w3.org/2000/svg">
<g id="fluent:call-20-filled">
<path id="Vector" d="M8.48501 2.49389C9.01011 2.33558 9.57359 2.36188 10.0817 2.56842C10.5897 2.77497 11.0117 3.1493 11.2774 3.6291L11.3662 3.80789L12.1606 5.57309C12.4012 6.10897 12.4792 6.7037 12.385 7.2835C12.2907 7.86331 12.0282 8.40267 11.6302 8.83469L11.4706 8.99309L10.219 10.1607C9.99341 10.3743 10.1626 11.2011 10.9786 12.6147C11.713 13.8867 12.3106 14.4807 12.6046 14.5131H12.6562L12.7198 14.5011L15.1798 13.7487C15.5104 13.6473 15.8632 13.6433 16.1961 13.7371C16.5289 13.831 16.8277 14.0187 17.0566 14.2779L17.1658 14.4159L18.7942 16.6719C19.1133 17.1141 19.2724 17.6518 19.2451 18.1964C19.2178 18.7411 19.0059 19.2602 18.6442 19.6683L18.4978 19.8195L17.8474 20.4363C17.2634 20.9894 16.5328 21.3632 15.7425 21.5131C14.9522 21.6631 14.1355 21.583 13.3894 21.2823C11.0674 20.3463 8.95781 18.2079 7.04141 14.8887C5.12141 11.5611 4.32341 8.6607 4.67981 6.1767C4.78766 5.42582 5.09686 4.71816 5.57457 4.12889C6.05229 3.53962 6.68068 3.09073 7.39301 2.82989L7.62461 2.75309L8.48501 2.49389Z" fill="#FF9900"/>
</g>
</svg>
