<svg width="30" height="32" viewBox="0 0 30 32" fill="none" xmlns="http://www.w3.org/2000/svg">
<path d="M11.0812 23.9812C10.9913 24.0728 10.921 24.1805 10.8743 24.2983C10.8277 24.416 10.8056 24.5415 10.8093 24.6674C10.813 24.7934 10.8424 24.9175 10.8959 25.0325C10.9494 25.1475 11.0259 25.2513 11.121 25.3378C11.2162 25.4244 11.3281 25.492 11.4504 25.537C11.5727 25.5819 11.703 25.6032 11.8338 25.5996C11.9646 25.596 12.0935 25.5677 12.2129 25.5162C12.3324 25.4647 12.4401 25.391 12.53 25.2994L21.0001 16.6645C21.175 16.4864 21.2725 16.2505 21.2725 16.0054C21.2725 15.7602 21.175 15.5244 21.0001 15.3462L12.53 6.71034C12.4407 6.61674 12.333 6.54115 12.2131 6.48798C12.0932 6.4348 11.9635 6.40509 11.8316 6.40058C11.6997 6.39607 11.5681 6.41684 11.4446 6.46169C11.3211 6.50654 11.208 6.57457 11.1121 6.66184C11.0161 6.7491 10.9391 6.85386 10.8855 6.97003C10.8319 7.08619 10.8028 7.21145 10.8 7.33852C10.7971 7.4656 10.8205 7.59195 10.8687 7.71026C10.917 7.82856 10.9892 7.93644 11.0812 8.02765L18.9055 16.0054L11.0812 23.9812Z" fill="#121212"/>
</svg>
