<svg width="30" height="32" viewBox="0 0 30 32" fill="none" xmlns="http://www.w3.org/2000/svg">
<path d="M18.9186 23.9812C19.0085 24.0728 19.0788 24.1805 19.1255 24.2983C19.1721 24.416 19.1942 24.5415 19.1905 24.6674C19.1868 24.7934 19.1574 24.9175 19.1039 25.0325C19.0504 25.1475 18.9739 25.2513 18.8788 25.3378C18.7837 25.4244 18.6717 25.492 18.5494 25.537C18.4272 25.5819 18.2969 25.6032 18.166 25.5996C18.0352 25.596 17.9064 25.5677 17.7869 25.5162C17.6674 25.4647 17.5597 25.391 17.4698 25.2994L8.99973 16.6645C8.82482 16.4864 8.72736 16.2505 8.72736 16.0054C8.72736 15.7602 8.82482 15.5244 8.99973 15.3462L17.4698 6.71034C17.5591 6.61674 17.6668 6.54115 17.7867 6.48798C17.9066 6.4348 18.0363 6.40509 18.1682 6.40058C18.3002 6.39607 18.4317 6.41684 18.5552 6.46169C18.6787 6.50654 18.7918 6.57457 18.8878 6.66184C18.9837 6.7491 19.0608 6.85386 19.1143 6.97003C19.1679 7.08619 19.197 7.21145 19.1998 7.33852C19.2027 7.4656 19.1793 7.59195 19.1311 7.71026C19.0828 7.82856 19.0106 7.93644 18.9186 8.02765L11.0943 16.0054L18.9186 23.9812Z" fill="#121212"/>
</svg>
